<svg width="566" height="24" viewBox="0 0 566 24" fill="none" xmlns="http://www.w3.org/2000/svg">
<path d="M13.25 4.8V19H12.23V12.2H3.27001V19H2.25001V4.8H3.27001V11.28H12.23V4.8H13.25ZM20.8608 19.2C20.1275 19.2 19.4475 19.06 18.8208 18.78C18.2075 18.5 17.6741 18.1133 17.2208 17.62C16.7675 17.1133 16.4141 16.5333 16.1608 15.88C15.9075 15.2267 15.7808 14.54 15.7808 13.82C15.7808 13.0867 15.9075 12.4 16.1608 11.76C16.4141 11.1067 16.7675 10.5333 17.2208 10.04C17.6875 9.53333 18.2275 9.14 18.8408 8.86C19.4675 8.56667 20.1408 8.42 20.8608 8.42C21.5808 8.42 22.2475 8.56667 22.8608 8.86C23.4741 9.14 24.0141 9.53333 24.4808 10.04C24.9475 10.5333 25.3075 11.1067 25.5608 11.76C25.8141 12.4 25.9408 13.0867 25.9408 13.82C25.9408 14.54 25.8141 15.2267 25.5608 15.88C25.3075 16.5333 24.9475 17.1133 24.4808 17.62C24.0275 18.1133 23.4875 18.5 22.8608 18.78C22.2475 19.06 21.5808 19.2 20.8608 19.2ZM16.7808 13.86C16.7808 14.6733 16.9608 15.42 17.3208 16.1C17.6941 16.7667 18.1875 17.3 18.8008 17.7C19.4141 18.1 20.0941 18.3 20.8408 18.3C21.5875 18.3 22.2675 18.1 22.8808 17.7C23.5075 17.2867 24.0008 16.74 24.3608 16.06C24.7341 15.3667 24.9208 14.6133 24.9208 13.8C24.9208 12.9867 24.7341 12.24 24.3608 11.56C24.0008 10.88 23.5075 10.34 22.8808 9.94C22.2675 9.52667 21.5941 9.32 20.8608 9.32C20.1141 9.32 19.4341 9.52667 18.8208 9.94C18.2075 10.3533 17.7141 10.9 17.3408 11.58C16.9675 12.26 16.7808 13.02 16.7808 13.86ZM43.6167 19H42.6167V13.2C42.6167 11.88 42.4101 10.9067 41.9967 10.28C41.5967 9.65333 40.9767 9.34 40.1367 9.34C39.2834 9.34 38.5234 9.64667 37.8567 10.26C37.2034 10.86 36.7434 11.6333 36.4767 12.58V19H35.4767V13.2C35.4767 11.8667 35.2767 10.8933 34.8767 10.28C34.4767 9.65333 33.8567 9.34 33.0167 9.34C32.1634 9.34 31.4034 9.64 30.7367 10.24C30.0834 10.8267 29.6167 11.6 29.3367 12.56V19H28.3367V8.6H29.2767V11.08C29.7167 10.2267 30.2834 9.57333 30.9767 9.12C31.6701 8.65333 32.4301 8.42 33.2567 8.42C34.1234 8.42 34.8301 8.68 35.3767 9.2C35.9367 9.70667 36.2701 10.3867 36.3767 11.24C36.8701 10.3067 37.4567 9.60667 38.1367 9.14C38.8167 8.66 39.5901 8.42 40.4567 8.42C41.0301 8.42 41.5101 8.52667 41.8967 8.74C42.2967 8.94 42.6234 9.24 42.8767 9.64C43.1434 10.0267 43.3301 10.5067 43.4367 11.08C43.5567 11.6533 43.6167 12.3 43.6167 13.02V19ZM51.0575 19.2C50.3242 19.2 49.6442 19.06 49.0175 18.78C48.3908 18.4867 47.8442 18.0933 47.3775 17.6C46.9242 17.0933 46.5642 16.5133 46.2975 15.86C46.0442 15.1933 45.9175 14.4933 45.9175 13.76C45.9175 12.7733 46.1375 11.88 46.5775 11.08C47.0175 10.28 47.6242 9.64 48.3975 9.16C49.1708 8.66667 50.0375 8.42 50.9975 8.42C51.9842 8.42 52.8575 8.66667 53.6175 9.16C54.3775 9.65333 54.9775 10.3067 55.4175 11.12C55.8708 11.92 56.0975 12.8 56.0975 13.76C56.0975 13.84 56.0975 13.92 56.0975 14C56.0975 14.08 56.0908 14.1467 56.0775 14.2H46.9575C47.0108 14.9867 47.2308 15.7 47.6175 16.34C48.0042 16.98 48.4975 17.4867 49.0975 17.86C49.7108 18.22 50.3775 18.4 51.0975 18.4C51.8175 18.4 52.4975 18.2133 53.1375 17.84C53.7775 17.4667 54.2242 16.9867 54.4775 16.4L55.3575 16.64C55.1575 17.1333 54.8375 17.5733 54.3975 17.96C53.9708 18.3467 53.4642 18.6533 52.8775 18.88C52.3042 19.0933 51.6975 19.2 51.0575 19.2ZM46.9175 13.42H55.1375C55.0842 12.6067 54.8708 11.8867 54.4975 11.26C54.1242 10.6333 53.6308 10.14 53.0175 9.78C52.4175 9.42 51.7508 9.24 51.0175 9.24C50.2842 9.24 49.6175 9.42 49.0175 9.78C48.4175 10.14 47.9308 10.6333 47.5575 11.26C47.1842 11.8867 46.9708 12.6067 46.9175 13.42Z" fill="#FFA8FF"/>
<path d="M155.71 4.8H156.59L162.59 19H161.51L159.53 14.32H152.75L150.77 19H149.67L155.71 4.8ZM159.25 13.48L156.15 6.04L152.99 13.48H159.25ZM169.306 19.2C168.493 19.2 167.733 18.9867 167.026 18.56C166.319 18.12 165.766 17.5733 165.366 16.92V19H164.446V4.4H165.446V10.86C165.939 10.14 166.519 9.55333 167.186 9.1C167.866 8.64667 168.646 8.42 169.526 8.42C170.273 8.42 170.933 8.57333 171.506 8.88C172.093 9.18667 172.593 9.6 173.006 10.12C173.419 10.64 173.733 11.22 173.946 11.86C174.173 12.5 174.286 13.16 174.286 13.84C174.286 14.5467 174.159 15.2267 173.906 15.88C173.653 16.52 173.299 17.0933 172.846 17.6C172.393 18.0933 171.866 18.4867 171.266 18.78C170.666 19.06 170.013 19.2 169.306 19.2ZM169.106 18.3C169.719 18.3 170.279 18.18 170.786 17.94C171.293 17.6867 171.726 17.3467 172.086 16.92C172.459 16.4933 172.746 16.0133 172.946 15.48C173.159 14.9467 173.266 14.4 173.266 13.84C173.266 13.0533 173.099 12.32 172.766 11.64C172.433 10.9467 171.966 10.3867 171.366 9.96C170.766 9.53333 170.073 9.32 169.286 9.32C168.699 9.32 168.159 9.45333 167.666 9.72C167.173 9.97333 166.739 10.3067 166.366 10.72C166.006 11.1333 165.699 11.5867 165.446 12.08V15.52C165.499 15.9067 165.646 16.2733 165.886 16.62C166.126 16.9533 166.426 17.2467 166.786 17.5C167.159 17.74 167.546 17.9333 167.946 18.08C168.359 18.2267 168.746 18.3 169.106 18.3ZM181.052 19.2C180.319 19.2 179.639 19.06 179.012 18.78C178.399 18.5 177.866 18.1133 177.412 17.62C176.959 17.1133 176.606 16.5333 176.352 15.88C176.099 15.2267 175.972 14.54 175.972 13.82C175.972 13.0867 176.099 12.4 176.352 11.76C176.606 11.1067 176.959 10.5333 177.412 10.04C177.879 9.53333 178.419 9.14 179.032 8.86C179.659 8.56667 180.332 8.42 181.052 8.42C181.772 8.42 182.439 8.56667 183.052 8.86C183.666 9.14 184.206 9.53333 184.672 10.04C185.139 10.5333 185.499 11.1067 185.752 11.76C186.006 12.4 186.132 13.0867 186.132 13.82C186.132 14.54 186.006 15.2267 185.752 15.88C185.499 16.5333 185.139 17.1133 184.672 17.62C184.219 18.1133 183.679 18.5 183.052 18.78C182.439 19.06 181.772 19.2 181.052 19.2ZM176.972 13.86C176.972 14.6733 177.152 15.42 177.512 16.1C177.886 16.7667 178.379 17.3 178.992 17.7C179.606 18.1 180.286 18.3 181.032 18.3C181.779 18.3 182.459 18.1 183.072 17.7C183.699 17.2867 184.192 16.74 184.552 16.06C184.926 15.3667 185.112 14.6133 185.112 13.8C185.112 12.9867 184.926 12.24 184.552 11.56C184.192 10.88 183.699 10.34 183.072 9.94C182.459 9.52667 181.786 9.32 181.052 9.32C180.306 9.32 179.626 9.52667 179.012 9.94C178.399 10.3533 177.906 10.9 177.532 11.58C177.159 12.26 176.972 13.02 176.972 13.86ZM188.428 14.6V8.6H189.428V14.46C189.428 15.7533 189.641 16.72 190.068 17.36C190.508 17.9867 191.168 18.3 192.048 18.3C192.635 18.3 193.195 18.1733 193.728 17.92C194.275 17.6533 194.755 17.2867 195.168 16.82C195.581 16.34 195.888 15.7867 196.088 15.16V8.6H197.088V17.68C197.088 17.84 197.121 17.96 197.188 18.04C197.268 18.12 197.375 18.1667 197.508 18.18V19C197.375 19.0133 197.268 19.02 197.188 19.02C197.121 19.02 197.061 19.0133 197.008 19C196.781 18.9733 196.595 18.88 196.448 18.72C196.301 18.5467 196.221 18.34 196.208 18.1L196.188 16.54C195.735 17.3667 195.108 18.02 194.308 18.5C193.521 18.9667 192.668 19.2 191.748 19.2C190.655 19.2 189.828 18.8133 189.268 18.04C188.708 17.2667 188.428 16.12 188.428 14.6ZM204.906 18.5C204.84 18.5267 204.706 18.5933 204.506 18.7C204.306 18.8067 204.053 18.9067 203.746 19C203.44 19.08 203.1 19.12 202.726 19.12C202.366 19.12 202.026 19.0533 201.706 18.92C201.4 18.7733 201.153 18.56 200.966 18.28C200.78 18 200.686 17.66 200.686 17.26V9.42H199.226V8.6H200.686V5.04H201.686V8.6H204.106V9.42H201.686V17.02C201.713 17.4067 201.853 17.7 202.106 17.9C202.36 18.0867 202.653 18.18 202.986 18.18C203.4 18.18 203.76 18.1133 204.066 17.98C204.373 17.8333 204.553 17.74 204.606 17.7L204.906 18.5Z" fill="#FFA8FF"/>
<path d="M298.27 11.8C298.27 10.9467 298.417 10.1067 298.71 9.28C299.017 8.44 299.457 7.68 300.03 7C300.603 6.30667 301.303 5.75333 302.13 5.34C302.97 4.92667 303.923 4.72 304.99 4.72C306.257 4.72 307.337 5.01333 308.23 5.6C309.123 6.17333 309.79 6.91333 310.23 7.82L309.39 8.3C309.057 7.64667 308.643 7.12667 308.15 6.74C307.67 6.35333 307.15 6.08 306.59 5.92C306.03 5.74667 305.47 5.66 304.91 5.66C304.017 5.66 303.217 5.84 302.51 6.2C301.817 6.56 301.23 7.04 300.75 7.64C300.27 8.24 299.903 8.90667 299.65 9.64C299.41 10.3733 299.29 11.1133 299.29 11.86C299.29 12.7 299.437 13.5 299.73 14.26C300.023 15.0067 300.423 15.6733 300.93 16.26C301.45 16.8467 302.05 17.3133 302.73 17.66C303.423 18.0067 304.17 18.18 304.97 18.18C305.543 18.18 306.123 18.0867 306.71 17.9C307.31 17.7 307.87 17.4 308.39 17C308.91 16.5867 309.33 16.0533 309.65 15.4L310.53 15.82C310.223 16.5267 309.763 17.1267 309.15 17.62C308.537 18.1133 307.857 18.4867 307.11 18.74C306.363 18.9933 305.623 19.12 304.89 19.12C303.93 19.12 303.043 18.9133 302.23 18.5C301.417 18.0733 300.71 17.5133 300.11 16.82C299.523 16.1133 299.07 15.3267 298.75 14.46C298.43 13.58 298.27 12.6933 298.27 11.8ZM317.119 19.2C316.385 19.2 315.705 19.06 315.079 18.78C314.465 18.5 313.932 18.1133 313.479 17.62C313.025 17.1133 312.672 16.5333 312.419 15.88C312.165 15.2267 312.039 14.54 312.039 13.82C312.039 13.0867 312.165 12.4 312.419 11.76C312.672 11.1067 313.025 10.5333 313.479 10.04C313.945 9.53333 314.485 9.14 315.099 8.86C315.725 8.56667 316.399 8.42 317.119 8.42C317.839 8.42 318.505 8.56667 319.119 8.86C319.732 9.14 320.272 9.53333 320.739 10.04C321.205 10.5333 321.565 11.1067 321.819 11.76C322.072 12.4 322.199 13.0867 322.199 13.82C322.199 14.54 322.072 15.2267 321.819 15.88C321.565 16.5333 321.205 17.1133 320.739 17.62C320.285 18.1133 319.745 18.5 319.119 18.78C318.505 19.06 317.839 19.2 317.119 19.2ZM313.039 13.86C313.039 14.6733 313.219 15.42 313.579 16.1C313.952 16.7667 314.445 17.3 315.059 17.7C315.672 18.1 316.352 18.3 317.099 18.3C317.845 18.3 318.525 18.1 319.139 17.7C319.765 17.2867 320.259 16.74 320.619 16.06C320.992 15.3667 321.179 14.6133 321.179 13.8C321.179 12.9867 320.992 12.24 320.619 11.56C320.259 10.88 319.765 10.34 319.139 9.94C318.525 9.52667 317.852 9.32 317.119 9.32C316.372 9.32 315.692 9.52667 315.079 9.94C314.465 10.3533 313.972 10.9 313.599 11.58C313.225 12.26 313.039 13.02 313.039 13.86ZM333.095 19H332.095V13.2C332.095 11.8667 331.901 10.8933 331.515 10.28C331.141 9.65333 330.541 9.34 329.715 9.34C329.128 9.34 328.548 9.48 327.975 9.76C327.415 10.04 326.921 10.4267 326.495 10.92C326.081 11.4 325.781 11.9467 325.595 12.56V19H324.595V8.6H325.535V11.08C325.815 10.5467 326.188 10.0867 326.655 9.7C327.121 9.3 327.641 8.98667 328.215 8.76C328.788 8.53333 329.381 8.42 329.995 8.42C330.568 8.42 331.048 8.52667 331.435 8.74C331.835 8.94 332.155 9.23333 332.395 9.62C332.648 10.0067 332.828 10.4867 332.935 11.06C333.041 11.6333 333.095 12.2867 333.095 13.02V19ZM340.66 18.5C340.594 18.5267 340.46 18.5933 340.26 18.7C340.06 18.8067 339.807 18.9067 339.5 19C339.194 19.08 338.854 19.12 338.48 19.12C338.12 19.12 337.78 19.0533 337.46 18.92C337.154 18.7733 336.907 18.56 336.72 18.28C336.534 18 336.44 17.66 336.44 17.26V9.42H334.98V8.6H336.44V5.04H337.44V8.6H339.86V9.42H337.44V17.02C337.467 17.4067 337.607 17.7 337.86 17.9C338.114 18.0867 338.407 18.18 338.74 18.18C339.154 18.18 339.514 18.1133 339.82 17.98C340.127 17.8333 340.307 17.74 340.36 17.7L340.66 18.5ZM341.567 16C341.567 15.3733 341.753 14.8333 342.127 14.38C342.5 13.9133 343.013 13.5533 343.667 13.3C344.32 13.0333 345.073 12.9 345.927 12.9C346.46 12.9 347.013 12.9467 347.587 13.04C348.16 13.1333 348.673 13.26 349.127 13.42V12.44C349.127 11.48 348.847 10.7133 348.287 10.14C347.74 9.56667 346.98 9.28 346.007 9.28C345.487 9.28 344.947 9.38667 344.387 9.6C343.827 9.81333 343.253 10.12 342.667 10.52L342.247 9.8C342.927 9.34667 343.58 9.00667 344.207 8.78C344.847 8.54 345.48 8.42 346.107 8.42C347.347 8.42 348.327 8.78667 349.047 9.52C349.767 10.2533 350.127 11.2533 350.127 12.52V17.68C350.127 17.84 350.16 17.96 350.227 18.04C350.307 18.12 350.42 18.1667 350.567 18.18V19C350.447 19.0133 350.347 19.02 350.267 19.02C350.187 19.02 350.12 19.02 350.067 19.02C349.813 18.98 349.613 18.8733 349.467 18.7C349.333 18.5267 349.26 18.3333 349.247 18.12V17.3C348.767 17.9 348.147 18.3667 347.387 18.7C346.64 19.0333 345.853 19.2 345.027 19.2C344.373 19.2 343.78 19.06 343.247 18.78C342.727 18.5 342.313 18.12 342.007 17.64C341.713 17.1467 341.567 16.6 341.567 16ZM348.727 16.86C348.86 16.6867 348.96 16.52 349.027 16.36C349.093 16.2 349.127 16.0533 349.127 15.92V14.2C348.647 14.0133 348.147 13.8733 347.627 13.78C347.107 13.6867 346.573 13.64 346.027 13.64C344.987 13.64 344.14 13.8467 343.487 14.26C342.847 14.6733 342.527 15.2333 342.527 15.94C342.527 16.38 342.64 16.7867 342.867 17.16C343.093 17.5333 343.407 17.8333 343.807 18.06C344.22 18.2867 344.693 18.4 345.227 18.4C345.973 18.4 346.66 18.26 347.287 17.98C347.927 17.6867 348.407 17.3133 348.727 16.86ZM357.589 19.2C356.869 19.2 356.195 19.06 355.569 18.78C354.942 18.4867 354.395 18.0933 353.929 17.6C353.462 17.0933 353.095 16.5133 352.829 15.86C352.575 15.2067 352.449 14.5067 352.449 13.76C352.449 12.76 352.669 11.86 353.109 11.06C353.549 10.26 354.155 9.62 354.929 9.14C355.702 8.66 356.582 8.42 357.569 8.42C358.515 8.42 359.349 8.64 360.069 9.08C360.789 9.50667 361.329 10.0933 361.689 10.84L360.709 11.16C360.402 10.5867 359.962 10.14 359.389 9.82C358.829 9.48667 358.209 9.32 357.529 9.32C356.769 9.32 356.082 9.51333 355.469 9.9C354.855 10.2867 354.362 10.82 353.989 11.5C353.629 12.1667 353.449 12.92 353.449 13.76C353.449 14.5867 353.635 15.3467 354.009 16.04C354.382 16.7333 354.875 17.2867 355.489 17.7C356.115 18.1 356.802 18.3 357.549 18.3C358.029 18.3 358.495 18.2133 358.949 18.04C359.415 17.8533 359.815 17.6133 360.149 17.32C360.495 17.0267 360.722 16.7133 360.829 16.38L361.809 16.66C361.635 17.1533 361.335 17.5933 360.909 17.98C360.482 18.3533 359.982 18.6533 359.409 18.88C358.849 19.0933 358.242 19.2 357.589 19.2ZM368.707 18.5C368.641 18.5267 368.507 18.5933 368.307 18.7C368.107 18.8067 367.854 18.9067 367.547 19C367.241 19.08 366.901 19.12 366.527 19.12C366.167 19.12 365.827 19.0533 365.507 18.92C365.201 18.7733 364.954 18.56 364.767 18.28C364.581 18 364.487 17.66 364.487 17.26V9.42H363.027V8.6H364.487V5.04H365.487V8.6H367.907V9.42H365.487V17.02C365.514 17.4067 365.654 17.7 365.907 17.9C366.161 18.0867 366.454 18.18 366.787 18.18C367.201 18.18 367.561 18.1133 367.867 17.98C368.174 17.8333 368.354 17.74 368.407 17.7L368.707 18.5ZM381.63 19.1C380.497 19.1 379.55 18.9 378.79 18.5C378.03 18.1 377.424 17.56 376.97 16.88C376.517 16.1867 376.19 15.4133 375.99 14.56C375.79 13.7067 375.69 12.8333 375.69 11.94V4.8H376.71V11.94C376.71 12.7133 376.79 13.4733 376.95 14.22C377.11 14.9667 377.37 15.64 377.73 16.24C378.104 16.8267 378.604 17.2933 379.23 17.64C379.87 17.9867 380.664 18.16 381.61 18.16C382.57 18.16 383.364 17.98 383.99 17.62C384.63 17.26 385.13 16.7867 385.49 16.2C385.864 15.6 386.124 14.9333 386.27 14.2C386.43 13.4533 386.51 12.7 386.51 11.94V4.8H387.53V11.94C387.53 12.8867 387.424 13.7933 387.21 14.66C387.01 15.5133 386.677 16.2733 386.21 16.94C385.744 17.6067 385.137 18.1333 384.39 18.52C383.644 18.9067 382.724 19.1 381.63 19.1ZM393.773 19.2C392.946 19.2 392.18 19.06 391.473 18.78C390.766 18.5 390.146 18.0733 389.613 17.5L390.073 16.8C390.646 17.3467 391.226 17.7467 391.813 18C392.4 18.24 393.04 18.36 393.733 18.36C394.626 18.36 395.346 18.1733 395.893 17.8C396.453 17.4267 396.733 16.9067 396.733 16.24C396.733 15.7867 396.6 15.44 396.333 15.2C396.08 14.9467 395.706 14.7467 395.213 14.6C394.733 14.44 394.146 14.2733 393.453 14.1C392.746 13.9133 392.146 13.72 391.653 13.52C391.173 13.32 390.813 13.06 390.573 12.74C390.333 12.42 390.213 11.9867 390.213 11.44C390.213 10.76 390.38 10.2 390.713 9.76C391.06 9.30667 391.52 8.97333 392.093 8.76C392.68 8.53333 393.326 8.42 394.033 8.42C394.846 8.42 395.553 8.55333 396.153 8.82C396.766 9.08667 397.233 9.44 397.553 9.88L397.013 10.52C396.68 10.0933 396.246 9.78 395.713 9.58C395.18 9.36667 394.593 9.26 393.953 9.26C393.473 9.26 393.02 9.32667 392.593 9.46C392.166 9.59333 391.82 9.81333 391.553 10.12C391.3 10.4133 391.173 10.8133 391.173 11.32C391.173 11.72 391.266 12.0333 391.453 12.26C391.653 12.4867 391.946 12.6733 392.333 12.82C392.72 12.9533 393.2 13.1 393.773 13.26C394.586 13.46 395.286 13.6667 395.873 13.88C396.46 14.0933 396.913 14.3733 397.233 14.72C397.553 15.0533 397.713 15.5267 397.713 16.14C397.713 17.0867 397.353 17.8333 396.633 18.38C395.913 18.9267 394.96 19.2 393.773 19.2Z" fill="#FFA8FF"/>
<path d="M501.51 7.16C501.283 6.90667 501.03 6.68667 500.75 6.5C500.47 6.3 500.17 6.14 499.85 6.02C499.53 5.88667 499.183 5.78667 498.81 5.72C498.437 5.65333 498.037 5.62 497.61 5.62C496.223 5.62 495.21 5.88667 494.57 6.42C493.943 6.94 493.63 7.64667 493.63 8.54C493.63 9.14 493.77 9.62 494.05 9.98C494.343 10.3267 494.797 10.6067 495.41 10.82C496.023 11.0333 496.817 11.24 497.79 11.44C498.817 11.6533 499.703 11.9067 500.45 12.2C501.197 12.48 501.77 12.8667 502.17 13.36C502.583 13.8533 502.79 14.52 502.79 15.36C502.79 15.9867 502.67 16.54 502.43 17.02C502.19 17.4867 501.843 17.8733 501.39 18.18C500.937 18.4867 500.397 18.72 499.77 18.88C499.157 19.04 498.47 19.12 497.71 19.12C496.977 19.12 496.277 19.04 495.61 18.88C494.943 18.72 494.317 18.4867 493.73 18.18C493.143 17.8733 492.597 17.48 492.09 17L492.63 16.18C492.923 16.5 493.25 16.7867 493.61 17.04C493.983 17.28 494.383 17.4867 494.81 17.66C495.25 17.8333 495.717 17.9733 496.21 18.08C496.703 18.1733 497.217 18.22 497.75 18.22C498.99 18.22 499.957 17.9933 500.65 17.54C501.357 17.0733 501.71 16.3867 501.71 15.48C501.71 14.8533 501.55 14.3467 501.23 13.96C500.91 13.5733 500.417 13.26 499.75 13.02C499.083 12.7667 498.25 12.5333 497.25 12.32C496.25 12.1067 495.397 11.8667 494.69 11.6C493.997 11.3333 493.47 10.9733 493.11 10.52C492.763 10.0667 492.59 9.45333 492.59 8.68C492.59 7.82667 492.797 7.10667 493.21 6.52C493.637 5.92 494.23 5.46667 494.99 5.16C495.75 4.85333 496.623 4.7 497.61 4.7C498.223 4.7 498.79 4.76 499.31 4.88C499.843 5 500.33 5.18667 500.77 5.44C501.223 5.68 501.643 5.98667 502.03 6.36L501.51 7.16ZM504.959 14.6V8.6H505.959V14.46C505.959 15.7533 506.173 16.72 506.599 17.36C507.039 17.9867 507.699 18.3 508.579 18.3C509.166 18.3 509.726 18.1733 510.259 17.92C510.806 17.6533 511.286 17.2867 511.699 16.82C512.113 16.34 512.419 15.7867 512.619 15.16V8.6H513.619V17.68C513.619 17.84 513.653 17.96 513.719 18.04C513.799 18.12 513.906 18.1667 514.039 18.18V19C513.906 19.0133 513.799 19.02 513.719 19.02C513.653 19.02 513.593 19.0133 513.539 19C513.313 18.9733 513.126 18.88 512.979 18.72C512.833 18.5467 512.753 18.34 512.739 18.1L512.719 16.54C512.266 17.3667 511.639 18.02 510.839 18.5C510.053 18.9667 509.199 19.2 508.279 19.2C507.186 19.2 506.359 18.8133 505.799 18.04C505.239 17.2667 504.959 16.12 504.959 14.6ZM521.878 19.2C520.984 19.2 520.184 18.9667 519.478 18.5C518.784 18.02 518.224 17.44 517.798 16.76V23.26H516.798V8.6H517.718V10.68C518.144 10.0133 518.711 9.47333 519.418 9.06C520.124 8.63333 520.871 8.42 521.658 8.42C522.391 8.42 523.058 8.57333 523.658 8.88C524.258 9.17333 524.778 9.58 525.218 10.1C525.671 10.6067 526.018 11.18 526.258 11.82C526.511 12.46 526.638 13.1267 526.638 13.82C526.638 14.78 526.438 15.6733 526.038 16.5C525.638 17.3133 525.078 17.9667 524.358 18.46C523.651 18.9533 522.824 19.2 521.878 19.2ZM521.638 18.3C522.251 18.3 522.798 18.1733 523.278 17.92C523.771 17.6667 524.191 17.3267 524.538 16.9C524.884 16.4733 525.151 15.9933 525.338 15.46C525.524 14.9267 525.618 14.38 525.618 13.82C525.618 13.22 525.511 12.6533 525.298 12.12C525.084 11.5733 524.784 11.0933 524.398 10.68C524.024 10.2667 523.584 9.94 523.078 9.7C522.584 9.44667 522.044 9.32 521.458 9.32C521.098 9.32 520.711 9.39333 520.298 9.54C519.898 9.68667 519.511 9.89333 519.138 10.16C518.778 10.4267 518.478 10.7333 518.238 11.08C517.998 11.4133 517.851 11.76 517.798 12.12V15.54C518.038 16.0467 518.344 16.5133 518.718 16.94C519.104 17.3533 519.551 17.6867 520.058 17.94C520.564 18.18 521.091 18.3 521.638 18.3ZM534.124 19.2C533.23 19.2 532.43 18.9667 531.724 18.5C531.03 18.02 530.47 17.44 530.044 16.76V23.26H529.044V8.6H529.964V10.68C530.39 10.0133 530.957 9.47333 531.664 9.06C532.37 8.63333 533.117 8.42 533.904 8.42C534.637 8.42 535.304 8.57333 535.904 8.88C536.504 9.17333 537.024 9.58 537.464 10.1C537.917 10.6067 538.264 11.18 538.504 11.82C538.757 12.46 538.884 13.1267 538.884 13.82C538.884 14.78 538.684 15.6733 538.284 16.5C537.884 17.3133 537.324 17.9667 536.604 18.46C535.897 18.9533 535.07 19.2 534.124 19.2ZM533.884 18.3C534.497 18.3 535.044 18.1733 535.524 17.92C536.017 17.6667 536.437 17.3267 536.784 16.9C537.13 16.4733 537.397 15.9933 537.584 15.46C537.77 14.9267 537.864 14.38 537.864 13.82C537.864 13.22 537.757 12.6533 537.544 12.12C537.33 11.5733 537.03 11.0933 536.644 10.68C536.27 10.2667 535.83 9.94 535.324 9.7C534.83 9.44667 534.29 9.32 533.704 9.32C533.344 9.32 532.957 9.39333 532.544 9.54C532.144 9.68667 531.757 9.89333 531.384 10.16C531.024 10.4267 530.724 10.7333 530.484 11.08C530.244 11.4133 530.097 11.76 530.044 12.12V15.54C530.284 16.0467 530.59 16.5133 530.964 16.94C531.35 17.3533 531.797 17.6867 532.304 17.94C532.81 18.18 533.337 18.3 533.884 18.3ZM545.65 19.2C544.917 19.2 544.237 19.06 543.61 18.78C542.997 18.5 542.463 18.1133 542.01 17.62C541.557 17.1133 541.203 16.5333 540.95 15.88C540.697 15.2267 540.57 14.54 540.57 13.82C540.57 13.0867 540.697 12.4 540.95 11.76C541.203 11.1067 541.557 10.5333 542.01 10.04C542.477 9.53333 543.017 9.14 543.63 8.86C544.257 8.56667 544.93 8.42 545.65 8.42C546.37 8.42 547.037 8.56667 547.65 8.86C548.263 9.14 548.803 9.53333 549.27 10.04C549.737 10.5333 550.097 11.1067 550.35 11.76C550.603 12.4 550.73 13.0867 550.73 13.82C550.73 14.54 550.603 15.2267 550.35 15.88C550.097 16.5333 549.737 17.1133 549.27 17.62C548.817 18.1133 548.277 18.5 547.65 18.78C547.037 19.06 546.37 19.2 545.65 19.2ZM541.57 13.86C541.57 14.6733 541.75 15.42 542.11 16.1C542.483 16.7667 542.977 17.3 543.59 17.7C544.203 18.1 544.883 18.3 545.63 18.3C546.377 18.3 547.057 18.1 547.67 17.7C548.297 17.2867 548.79 16.74 549.15 16.06C549.523 15.3667 549.71 14.6133 549.71 13.8C549.71 12.9867 549.523 12.24 549.15 11.56C548.79 10.88 548.297 10.34 547.67 9.94C547.057 9.52667 546.383 9.32 545.65 9.32C544.903 9.32 544.223 9.52667 543.61 9.94C542.997 10.3533 542.503 10.9 542.13 11.58C541.757 12.26 541.57 13.02 541.57 13.86ZM558.046 9.5C557.112 9.52667 556.292 9.80667 555.586 10.34C554.892 10.86 554.406 11.58 554.126 12.5V19H553.126V8.6H554.086V11.16C554.446 10.4267 554.926 9.83333 555.526 9.38C556.126 8.91333 556.759 8.64667 557.426 8.58C557.559 8.56667 557.679 8.56 557.786 8.56C557.892 8.56 557.979 8.56 558.046 8.56V9.5ZM564.582 18.5C564.516 18.5267 564.382 18.5933 564.182 18.7C563.982 18.8067 563.729 18.9067 563.422 19C563.116 19.08 562.776 19.12 562.402 19.12C562.042 19.12 561.702 19.0533 561.382 18.92C561.076 18.7733 560.829 18.56 560.642 18.28C560.456 18 560.362 17.66 560.362 17.26V9.42H558.902V8.6H560.362V5.04H561.362V8.6H563.782V9.42H561.362V17.02C561.389 17.4067 561.529 17.7 561.782 17.9C562.036 18.0867 562.329 18.18 562.662 18.18C563.076 18.18 563.436 18.1133 563.742 17.98C564.049 17.8333 564.229 17.74 564.282 17.7L564.582 18.5Z" fill="#FFA8FF"/>
</svg>
