<svg width="1440" height="33" viewBox="0 0 1440 33" fill="none" xmlns="http://www.w3.org/2000/svg">
<path d="M108.25 9.8V24H107.23V17.2H98.27V24H97.25V9.8H98.27V16.28H107.23V9.8H108.25ZM115.861 24.2C115.127 24.2 114.447 24.06 113.821 23.78C113.207 23.5 112.674 23.1133 112.221 22.62C111.767 22.1133 111.414 21.5333 111.161 20.88C110.907 20.2267 110.781 19.54 110.781 18.82C110.781 18.0867 110.907 17.4 111.161 16.76C111.414 16.1067 111.767 15.5333 112.221 15.04C112.687 14.5333 113.227 14.14 113.841 13.86C114.467 13.5667 115.141 13.42 115.861 13.42C116.581 13.42 117.247 13.5667 117.861 13.86C118.474 14.14 119.014 14.5333 119.481 15.04C119.947 15.5333 120.307 16.1067 120.561 16.76C120.814 17.4 120.941 18.0867 120.941 18.82C120.941 19.54 120.814 20.2267 120.561 20.88C120.307 21.5333 119.947 22.1133 119.481 22.62C119.027 23.1133 118.487 23.5 117.861 23.78C117.247 24.06 116.581 24.2 115.861 24.2ZM111.781 18.86C111.781 19.6733 111.961 20.42 112.321 21.1C112.694 21.7667 113.187 22.3 113.801 22.7C114.414 23.1 115.094 23.3 115.841 23.3C116.587 23.3 117.267 23.1 117.881 22.7C118.507 22.2867 119.001 21.74 119.361 21.06C119.734 20.3667 119.921 19.6133 119.921 18.8C119.921 17.9867 119.734 17.24 119.361 16.56C119.001 15.88 118.507 15.34 117.881 14.94C117.267 14.5267 116.594 14.32 115.861 14.32C115.114 14.32 114.434 14.5267 113.821 14.94C113.207 15.3533 112.714 15.9 112.341 16.58C111.967 17.26 111.781 18.02 111.781 18.86ZM138.617 24H137.617V18.2C137.617 16.88 137.41 15.9067 136.997 15.28C136.597 14.6533 135.977 14.34 135.137 14.34C134.283 14.34 133.523 14.6467 132.857 15.26C132.203 15.86 131.743 16.6333 131.477 17.58V24H130.477V18.2C130.477 16.8667 130.277 15.8933 129.877 15.28C129.477 14.6533 128.857 14.34 128.017 14.34C127.163 14.34 126.403 14.64 125.737 15.24C125.083 15.8267 124.617 16.6 124.337 17.56V24H123.337V13.6H124.277V16.08C124.717 15.2267 125.283 14.5733 125.977 14.12C126.67 13.6533 127.43 13.42 128.257 13.42C129.123 13.42 129.83 13.68 130.377 14.2C130.937 14.7067 131.27 15.3867 131.377 16.24C131.87 15.3067 132.457 14.6067 133.137 14.14C133.817 13.66 134.59 13.42 135.457 13.42C136.03 13.42 136.51 13.5267 136.897 13.74C137.297 13.94 137.623 14.24 137.877 14.64C138.143 15.0267 138.33 15.5067 138.437 16.08C138.557 16.6533 138.617 17.3 138.617 18.02V24ZM146.058 24.2C145.324 24.2 144.644 24.06 144.018 23.78C143.391 23.4867 142.844 23.0933 142.378 22.6C141.924 22.0933 141.564 21.5133 141.298 20.86C141.044 20.1933 140.918 19.4933 140.918 18.76C140.918 17.7733 141.138 16.88 141.578 16.08C142.018 15.28 142.624 14.64 143.398 14.16C144.171 13.6667 145.038 13.42 145.998 13.42C146.984 13.42 147.858 13.6667 148.618 14.16C149.378 14.6533 149.978 15.3067 150.418 16.12C150.871 16.92 151.098 17.8 151.098 18.76C151.098 18.84 151.098 18.92 151.098 19C151.098 19.08 151.091 19.1467 151.078 19.2H141.958C142.011 19.9867 142.231 20.7 142.618 21.34C143.004 21.98 143.498 22.4867 144.098 22.86C144.711 23.22 145.378 23.4 146.098 23.4C146.818 23.4 147.498 23.2133 148.138 22.84C148.778 22.4667 149.224 21.9867 149.478 21.4L150.358 21.64C150.158 22.1333 149.838 22.5733 149.398 22.96C148.971 23.3467 148.464 23.6533 147.878 23.88C147.304 24.0933 146.698 24.2 146.058 24.2ZM141.918 18.42H150.138C150.084 17.6067 149.871 16.8867 149.498 16.26C149.124 15.6333 148.631 15.14 148.018 14.78C147.418 14.42 146.751 14.24 146.018 14.24C145.284 14.24 144.618 14.42 144.018 14.78C143.418 15.14 142.931 15.6333 142.558 16.26C142.184 16.8867 141.971 17.6067 141.918 18.42Z" fill="#FFA8FF"/>
<path d="M250.71 9.8H251.59L257.59 24H256.51L254.53 19.32H247.75L245.77 24H244.67L250.71 9.8ZM254.25 18.48L251.15 11.04L247.99 18.48H254.25ZM264.306 24.2C263.493 24.2 262.733 23.9867 262.026 23.56C261.319 23.12 260.766 22.5733 260.366 21.92V24H259.446V9.4H260.446V15.86C260.939 15.14 261.519 14.5533 262.186 14.1C262.866 13.6467 263.646 13.42 264.526 13.42C265.273 13.42 265.933 13.5733 266.506 13.88C267.093 14.1867 267.593 14.6 268.006 15.12C268.419 15.64 268.733 16.22 268.946 16.86C269.173 17.5 269.286 18.16 269.286 18.84C269.286 19.5467 269.159 20.2267 268.906 20.88C268.653 21.52 268.299 22.0933 267.846 22.6C267.393 23.0933 266.866 23.4867 266.266 23.78C265.666 24.06 265.013 24.2 264.306 24.2ZM264.106 23.3C264.719 23.3 265.279 23.18 265.786 22.94C266.293 22.6867 266.726 22.3467 267.086 21.92C267.459 21.4933 267.746 21.0133 267.946 20.48C268.159 19.9467 268.266 19.4 268.266 18.84C268.266 18.0533 268.099 17.32 267.766 16.64C267.433 15.9467 266.966 15.3867 266.366 14.96C265.766 14.5333 265.073 14.32 264.286 14.32C263.699 14.32 263.159 14.4533 262.666 14.72C262.173 14.9733 261.739 15.3067 261.366 15.72C261.006 16.1333 260.699 16.5867 260.446 17.08V20.52C260.499 20.9067 260.646 21.2733 260.886 21.62C261.126 21.9533 261.426 22.2467 261.786 22.5C262.159 22.74 262.546 22.9333 262.946 23.08C263.359 23.2267 263.746 23.3 264.106 23.3ZM276.052 24.2C275.319 24.2 274.639 24.06 274.012 23.78C273.399 23.5 272.866 23.1133 272.412 22.62C271.959 22.1133 271.606 21.5333 271.352 20.88C271.099 20.2267 270.972 19.54 270.972 18.82C270.972 18.0867 271.099 17.4 271.352 16.76C271.606 16.1067 271.959 15.5333 272.412 15.04C272.879 14.5333 273.419 14.14 274.032 13.86C274.659 13.5667 275.332 13.42 276.052 13.42C276.772 13.42 277.439 13.5667 278.052 13.86C278.666 14.14 279.206 14.5333 279.672 15.04C280.139 15.5333 280.499 16.1067 280.752 16.76C281.006 17.4 281.132 18.0867 281.132 18.82C281.132 19.54 281.006 20.2267 280.752 20.88C280.499 21.5333 280.139 22.1133 279.672 22.62C279.219 23.1133 278.679 23.5 278.052 23.78C277.439 24.06 276.772 24.2 276.052 24.2ZM271.972 18.86C271.972 19.6733 272.152 20.42 272.512 21.1C272.886 21.7667 273.379 22.3 273.992 22.7C274.606 23.1 275.286 23.3 276.032 23.3C276.779 23.3 277.459 23.1 278.072 22.7C278.699 22.2867 279.192 21.74 279.552 21.06C279.926 20.3667 280.112 19.6133 280.112 18.8C280.112 17.9867 279.926 17.24 279.552 16.56C279.192 15.88 278.699 15.34 278.072 14.94C277.459 14.5267 276.786 14.32 276.052 14.32C275.306 14.32 274.626 14.5267 274.012 14.94C273.399 15.3533 272.906 15.9 272.532 16.58C272.159 17.26 271.972 18.02 271.972 18.86ZM283.428 19.6V13.6H284.428V19.46C284.428 20.7533 284.641 21.72 285.068 22.36C285.508 22.9867 286.168 23.3 287.048 23.3C287.635 23.3 288.195 23.1733 288.728 22.92C289.275 22.6533 289.755 22.2867 290.168 21.82C290.581 21.34 290.888 20.7867 291.088 20.16V13.6H292.088V22.68C292.088 22.84 292.121 22.96 292.188 23.04C292.268 23.12 292.375 23.1667 292.508 23.18V24C292.375 24.0133 292.268 24.02 292.188 24.02C292.121 24.02 292.061 24.0133 292.008 24C291.781 23.9733 291.595 23.88 291.448 23.72C291.301 23.5467 291.221 23.34 291.208 23.1L291.188 21.54C290.735 22.3667 290.108 23.02 289.308 23.5C288.521 23.9667 287.668 24.2 286.748 24.2C285.655 24.2 284.828 23.8133 284.268 23.04C283.708 22.2667 283.428 21.12 283.428 19.6ZM299.906 23.5C299.84 23.5267 299.706 23.5933 299.506 23.7C299.306 23.8067 299.053 23.9067 298.746 24C298.44 24.08 298.1 24.12 297.726 24.12C297.366 24.12 297.026 24.0533 296.706 23.92C296.4 23.7733 296.153 23.56 295.966 23.28C295.78 23 295.686 22.66 295.686 22.26V14.42H294.226V13.6H295.686V10.04H296.686V13.6H299.106V14.42H296.686V22.02C296.713 22.4067 296.853 22.7 297.106 22.9C297.36 23.0867 297.653 23.18 297.986 23.18C298.4 23.18 298.76 23.1133 299.066 22.98C299.373 22.8333 299.553 22.74 299.606 22.7L299.906 23.5Z" fill="#FFA8FF"/>
<path d="M393.27 16.8C393.27 15.9467 393.417 15.1067 393.71 14.28C394.017 13.44 394.457 12.68 395.03 12C395.603 11.3067 396.303 10.7533 397.13 10.34C397.97 9.92667 398.923 9.72 399.99 9.72C401.257 9.72 402.337 10.0133 403.23 10.6C404.123 11.1733 404.79 11.9133 405.23 12.82L404.39 13.3C404.057 12.6467 403.643 12.1267 403.15 11.74C402.67 11.3533 402.15 11.08 401.59 10.92C401.03 10.7467 400.47 10.66 399.91 10.66C399.017 10.66 398.217 10.84 397.51 11.2C396.817 11.56 396.23 12.04 395.75 12.64C395.27 13.24 394.903 13.9067 394.65 14.64C394.41 15.3733 394.29 16.1133 394.29 16.86C394.29 17.7 394.437 18.5 394.73 19.26C395.023 20.0067 395.423 20.6733 395.93 21.26C396.45 21.8467 397.05 22.3133 397.73 22.66C398.423 23.0067 399.17 23.18 399.97 23.18C400.543 23.18 401.123 23.0867 401.71 22.9C402.31 22.7 402.87 22.4 403.39 22C403.91 21.5867 404.33 21.0533 404.65 20.4L405.53 20.82C405.223 21.5267 404.763 22.1267 404.15 22.62C403.537 23.1133 402.857 23.4867 402.11 23.74C401.363 23.9933 400.623 24.12 399.89 24.12C398.93 24.12 398.043 23.9133 397.23 23.5C396.417 23.0733 395.71 22.5133 395.11 21.82C394.523 21.1133 394.07 20.3267 393.75 19.46C393.43 18.58 393.27 17.6933 393.27 16.8ZM412.119 24.2C411.385 24.2 410.705 24.06 410.079 23.78C409.465 23.5 408.932 23.1133 408.479 22.62C408.025 22.1133 407.672 21.5333 407.419 20.88C407.165 20.2267 407.039 19.54 407.039 18.82C407.039 18.0867 407.165 17.4 407.419 16.76C407.672 16.1067 408.025 15.5333 408.479 15.04C408.945 14.5333 409.485 14.14 410.099 13.86C410.725 13.5667 411.399 13.42 412.119 13.42C412.839 13.42 413.505 13.5667 414.119 13.86C414.732 14.14 415.272 14.5333 415.739 15.04C416.205 15.5333 416.565 16.1067 416.819 16.76C417.072 17.4 417.199 18.0867 417.199 18.82C417.199 19.54 417.072 20.2267 416.819 20.88C416.565 21.5333 416.205 22.1133 415.739 22.62C415.285 23.1133 414.745 23.5 414.119 23.78C413.505 24.06 412.839 24.2 412.119 24.2ZM408.039 18.86C408.039 19.6733 408.219 20.42 408.579 21.1C408.952 21.7667 409.445 22.3 410.059 22.7C410.672 23.1 411.352 23.3 412.099 23.3C412.845 23.3 413.525 23.1 414.139 22.7C414.765 22.2867 415.259 21.74 415.619 21.06C415.992 20.3667 416.179 19.6133 416.179 18.8C416.179 17.9867 415.992 17.24 415.619 16.56C415.259 15.88 414.765 15.34 414.139 14.94C413.525 14.5267 412.852 14.32 412.119 14.32C411.372 14.32 410.692 14.5267 410.079 14.94C409.465 15.3533 408.972 15.9 408.599 16.58C408.225 17.26 408.039 18.02 408.039 18.86ZM428.095 24H427.095V18.2C427.095 16.8667 426.901 15.8933 426.515 15.28C426.141 14.6533 425.541 14.34 424.715 14.34C424.128 14.34 423.548 14.48 422.975 14.76C422.415 15.04 421.921 15.4267 421.495 15.92C421.081 16.4 420.781 16.9467 420.595 17.56V24H419.595V13.6H420.535V16.08C420.815 15.5467 421.188 15.0867 421.655 14.7C422.121 14.3 422.641 13.9867 423.215 13.76C423.788 13.5333 424.381 13.42 424.995 13.42C425.568 13.42 426.048 13.5267 426.435 13.74C426.835 13.94 427.155 14.2333 427.395 14.62C427.648 15.0067 427.828 15.4867 427.935 16.06C428.041 16.6333 428.095 17.2867 428.095 18.02V24ZM435.66 23.5C435.594 23.5267 435.46 23.5933 435.26 23.7C435.06 23.8067 434.807 23.9067 434.5 24C434.194 24.08 433.854 24.12 433.48 24.12C433.12 24.12 432.78 24.0533 432.46 23.92C432.154 23.7733 431.907 23.56 431.72 23.28C431.534 23 431.44 22.66 431.44 22.26V14.42H429.98V13.6H431.44V10.04H432.44V13.6H434.86V14.42H432.44V22.02C432.467 22.4067 432.607 22.7 432.86 22.9C433.114 23.0867 433.407 23.18 433.74 23.18C434.154 23.18 434.514 23.1133 434.82 22.98C435.127 22.8333 435.307 22.74 435.36 22.7L435.66 23.5ZM436.567 21C436.567 20.3733 436.753 19.8333 437.127 19.38C437.5 18.9133 438.013 18.5533 438.667 18.3C439.32 18.0333 440.073 17.9 440.927 17.9C441.46 17.9 442.013 17.9467 442.587 18.04C443.16 18.1333 443.673 18.26 444.127 18.42V17.44C444.127 16.48 443.847 15.7133 443.287 15.14C442.74 14.5667 441.98 14.28 441.007 14.28C440.487 14.28 439.947 14.3867 439.387 14.6C438.827 14.8133 438.253 15.12 437.667 15.52L437.247 14.8C437.927 14.3467 438.58 14.0067 439.207 13.78C439.847 13.54 440.48 13.42 441.107 13.42C442.347 13.42 443.327 13.7867 444.047 14.52C444.767 15.2533 445.127 16.2533 445.127 17.52V22.68C445.127 22.84 445.16 22.96 445.227 23.04C445.307 23.12 445.42 23.1667 445.567 23.18V24C445.447 24.0133 445.347 24.02 445.267 24.02C445.187 24.02 445.12 24.02 445.067 24.02C444.813 23.98 444.613 23.8733 444.467 23.7C444.333 23.5267 444.26 23.3333 444.247 23.12V22.3C443.767 22.9 443.147 23.3667 442.387 23.7C441.64 24.0333 440.853 24.2 440.027 24.2C439.373 24.2 438.78 24.06 438.247 23.78C437.727 23.5 437.313 23.12 437.007 22.64C436.713 22.1467 436.567 21.6 436.567 21ZM443.727 21.86C443.86 21.6867 443.96 21.52 444.027 21.36C444.093 21.2 444.127 21.0533 444.127 20.92V19.2C443.647 19.0133 443.147 18.8733 442.627 18.78C442.107 18.6867 441.573 18.64 441.027 18.64C439.987 18.64 439.14 18.8467 438.487 19.26C437.847 19.6733 437.527 20.2333 437.527 20.94C437.527 21.38 437.64 21.7867 437.867 22.16C438.093 22.5333 438.407 22.8333 438.807 23.06C439.22 23.2867 439.693 23.4 440.227 23.4C440.973 23.4 441.66 23.26 442.287 22.98C442.927 22.6867 443.407 22.3133 443.727 21.86ZM452.589 24.2C451.869 24.2 451.195 24.06 450.569 23.78C449.942 23.4867 449.395 23.0933 448.929 22.6C448.462 22.0933 448.095 21.5133 447.829 20.86C447.575 20.2067 447.449 19.5067 447.449 18.76C447.449 17.76 447.669 16.86 448.109 16.06C448.549 15.26 449.155 14.62 449.929 14.14C450.702 13.66 451.582 13.42 452.569 13.42C453.515 13.42 454.349 13.64 455.069 14.08C455.789 14.5067 456.329 15.0933 456.689 15.84L455.709 16.16C455.402 15.5867 454.962 15.14 454.389 14.82C453.829 14.4867 453.209 14.32 452.529 14.32C451.769 14.32 451.082 14.5133 450.469 14.9C449.855 15.2867 449.362 15.82 448.989 16.5C448.629 17.1667 448.449 17.92 448.449 18.76C448.449 19.5867 448.635 20.3467 449.009 21.04C449.382 21.7333 449.875 22.2867 450.489 22.7C451.115 23.1 451.802 23.3 452.549 23.3C453.029 23.3 453.495 23.2133 453.949 23.04C454.415 22.8533 454.815 22.6133 455.149 22.32C455.495 22.0267 455.722 21.7133 455.829 21.38L456.809 21.66C456.635 22.1533 456.335 22.5933 455.909 22.98C455.482 23.3533 454.982 23.6533 454.409 23.88C453.849 24.0933 453.242 24.2 452.589 24.2ZM463.707 23.5C463.641 23.5267 463.507 23.5933 463.307 23.7C463.107 23.8067 462.854 23.9067 462.547 24C462.241 24.08 461.901 24.12 461.527 24.12C461.167 24.12 460.827 24.0533 460.507 23.92C460.201 23.7733 459.954 23.56 459.767 23.28C459.581 23 459.487 22.66 459.487 22.26V14.42H458.027V13.6H459.487V10.04H460.487V13.6H462.907V14.42H460.487V22.02C460.514 22.4067 460.654 22.7 460.907 22.9C461.161 23.0867 461.454 23.18 461.787 23.18C462.201 23.18 462.561 23.1133 462.867 22.98C463.174 22.8333 463.354 22.74 463.407 22.7L463.707 23.5ZM476.63 24.1C475.497 24.1 474.55 23.9 473.79 23.5C473.03 23.1 472.424 22.56 471.97 21.88C471.517 21.1867 471.19 20.4133 470.99 19.56C470.79 18.7067 470.69 17.8333 470.69 16.94V9.8H471.71V16.94C471.71 17.7133 471.79 18.4733 471.95 19.22C472.11 19.9667 472.37 20.64 472.73 21.24C473.104 21.8267 473.604 22.2933 474.23 22.64C474.87 22.9867 475.664 23.16 476.61 23.16C477.57 23.16 478.364 22.98 478.99 22.62C479.63 22.26 480.13 21.7867 480.49 21.2C480.864 20.6 481.124 19.9333 481.27 19.2C481.43 18.4533 481.51 17.7 481.51 16.94V9.8H482.53V16.94C482.53 17.8867 482.424 18.7933 482.21 19.66C482.01 20.5133 481.677 21.2733 481.21 21.94C480.744 22.6067 480.137 23.1333 479.39 23.52C478.644 23.9067 477.724 24.1 476.63 24.1ZM488.773 24.2C487.946 24.2 487.18 24.06 486.473 23.78C485.766 23.5 485.146 23.0733 484.613 22.5L485.073 21.8C485.646 22.3467 486.226 22.7467 486.813 23C487.4 23.24 488.04 23.36 488.733 23.36C489.626 23.36 490.346 23.1733 490.893 22.8C491.453 22.4267 491.733 21.9067 491.733 21.24C491.733 20.7867 491.6 20.44 491.333 20.2C491.08 19.9467 490.706 19.7467 490.213 19.6C489.733 19.44 489.146 19.2733 488.453 19.1C487.746 18.9133 487.146 18.72 486.653 18.52C486.173 18.32 485.813 18.06 485.573 17.74C485.333 17.42 485.213 16.9867 485.213 16.44C485.213 15.76 485.38 15.2 485.713 14.76C486.06 14.3067 486.52 13.9733 487.093 13.76C487.68 13.5333 488.326 13.42 489.033 13.42C489.846 13.42 490.553 13.5533 491.153 13.82C491.766 14.0867 492.233 14.44 492.553 14.88L492.013 15.52C491.68 15.0933 491.246 14.78 490.713 14.58C490.18 14.3667 489.593 14.26 488.953 14.26C488.473 14.26 488.02 14.3267 487.593 14.46C487.166 14.5933 486.82 14.8133 486.553 15.12C486.3 15.4133 486.173 15.8133 486.173 16.32C486.173 16.72 486.266 17.0333 486.453 17.26C486.653 17.4867 486.946 17.6733 487.333 17.82C487.72 17.9533 488.2 18.1 488.773 18.26C489.586 18.46 490.286 18.6667 490.873 18.88C491.46 19.0933 491.913 19.3733 492.233 19.72C492.553 20.0533 492.713 20.5267 492.713 21.14C492.713 22.0867 492.353 22.8333 491.633 23.38C490.913 23.9267 489.96 24.2 488.773 24.2Z" fill="#FFA8FF"/>
<path d="M596.51 12.16C596.283 11.9067 596.03 11.6867 595.75 11.5C595.47 11.3 595.17 11.14 594.85 11.02C594.53 10.8867 594.183 10.7867 593.81 10.72C593.437 10.6533 593.037 10.62 592.61 10.62C591.223 10.62 590.21 10.8867 589.57 11.42C588.943 11.94 588.63 12.6467 588.63 13.54C588.63 14.14 588.77 14.62 589.05 14.98C589.343 15.3267 589.797 15.6067 590.41 15.82C591.023 16.0333 591.817 16.24 592.79 16.44C593.817 16.6533 594.703 16.9067 595.45 17.2C596.197 17.48 596.77 17.8667 597.17 18.36C597.583 18.8533 597.79 19.52 597.79 20.36C597.79 20.9867 597.67 21.54 597.43 22.02C597.19 22.4867 596.843 22.8733 596.39 23.18C595.937 23.4867 595.397 23.72 594.77 23.88C594.157 24.04 593.47 24.12 592.71 24.12C591.977 24.12 591.277 24.04 590.61 23.88C589.943 23.72 589.317 23.4867 588.73 23.18C588.143 22.8733 587.597 22.48 587.09 22L587.63 21.18C587.923 21.5 588.25 21.7867 588.61 22.04C588.983 22.28 589.383 22.4867 589.81 22.66C590.25 22.8333 590.717 22.9733 591.21 23.08C591.703 23.1733 592.217 23.22 592.75 23.22C593.99 23.22 594.957 22.9933 595.65 22.54C596.357 22.0733 596.71 21.3867 596.71 20.48C596.71 19.8533 596.55 19.3467 596.23 18.96C595.91 18.5733 595.417 18.26 594.75 18.02C594.083 17.7667 593.25 17.5333 592.25 17.32C591.25 17.1067 590.397 16.8667 589.69 16.6C588.997 16.3333 588.47 15.9733 588.11 15.52C587.763 15.0667 587.59 14.4533 587.59 13.68C587.59 12.8267 587.797 12.1067 588.21 11.52C588.637 10.92 589.23 10.4667 589.99 10.16C590.75 9.85333 591.623 9.7 592.61 9.7C593.223 9.7 593.79 9.76 594.31 9.88C594.843 10 595.33 10.1867 595.77 10.44C596.223 10.68 596.643 10.9867 597.03 11.36L596.51 12.16ZM599.959 19.6V13.6H600.959V19.46C600.959 20.7533 601.173 21.72 601.599 22.36C602.039 22.9867 602.699 23.3 603.579 23.3C604.166 23.3 604.726 23.1733 605.259 22.92C605.806 22.6533 606.286 22.2867 606.699 21.82C607.113 21.34 607.419 20.7867 607.619 20.16V13.6H608.619V22.68C608.619 22.84 608.653 22.96 608.719 23.04C608.799 23.12 608.906 23.1667 609.039 23.18V24C608.906 24.0133 608.799 24.02 608.719 24.02C608.653 24.02 608.593 24.0133 608.539 24C608.313 23.9733 608.126 23.88 607.979 23.72C607.833 23.5467 607.753 23.34 607.739 23.1L607.719 21.54C607.266 22.3667 606.639 23.02 605.839 23.5C605.053 23.9667 604.199 24.2 603.279 24.2C602.186 24.2 601.359 23.8133 600.799 23.04C600.239 22.2667 599.959 21.12 599.959 19.6ZM616.878 24.2C615.984 24.2 615.184 23.9667 614.478 23.5C613.784 23.02 613.224 22.44 612.798 21.76V28.26H611.798V13.6H612.718V15.68C613.144 15.0133 613.711 14.4733 614.418 14.06C615.124 13.6333 615.871 13.42 616.658 13.42C617.391 13.42 618.058 13.5733 618.658 13.88C619.258 14.1733 619.778 14.58 620.218 15.1C620.671 15.6067 621.018 16.18 621.258 16.82C621.511 17.46 621.638 18.1267 621.638 18.82C621.638 19.78 621.438 20.6733 621.038 21.5C620.638 22.3133 620.078 22.9667 619.358 23.46C618.651 23.9533 617.824 24.2 616.878 24.2ZM616.638 23.3C617.251 23.3 617.798 23.1733 618.278 22.92C618.771 22.6667 619.191 22.3267 619.538 21.9C619.884 21.4733 620.151 20.9933 620.338 20.46C620.524 19.9267 620.618 19.38 620.618 18.82C620.618 18.22 620.511 17.6533 620.298 17.12C620.084 16.5733 619.784 16.0933 619.398 15.68C619.024 15.2667 618.584 14.94 618.078 14.7C617.584 14.4467 617.044 14.32 616.458 14.32C616.098 14.32 615.711 14.3933 615.298 14.54C614.898 14.6867 614.511 14.8933 614.138 15.16C613.778 15.4267 613.478 15.7333 613.238 16.08C612.998 16.4133 612.851 16.76 612.798 17.12V20.54C613.038 21.0467 613.344 21.5133 613.718 21.94C614.104 22.3533 614.551 22.6867 615.058 22.94C615.564 23.18 616.091 23.3 616.638 23.3ZM629.124 24.2C628.23 24.2 627.43 23.9667 626.724 23.5C626.03 23.02 625.47 22.44 625.044 21.76V28.26H624.044V13.6H624.964V15.68C625.39 15.0133 625.957 14.4733 626.664 14.06C627.37 13.6333 628.117 13.42 628.904 13.42C629.637 13.42 630.304 13.5733 630.904 13.88C631.504 14.1733 632.024 14.58 632.464 15.1C632.917 15.6067 633.264 16.18 633.504 16.82C633.757 17.46 633.884 18.1267 633.884 18.82C633.884 19.78 633.684 20.6733 633.284 21.5C632.884 22.3133 632.324 22.9667 631.604 23.46C630.897 23.9533 630.07 24.2 629.124 24.2ZM628.884 23.3C629.497 23.3 630.044 23.1733 630.524 22.92C631.017 22.6667 631.437 22.3267 631.784 21.9C632.13 21.4733 632.397 20.9933 632.584 20.46C632.77 19.9267 632.864 19.38 632.864 18.82C632.864 18.22 632.757 17.6533 632.544 17.12C632.33 16.5733 632.03 16.0933 631.644 15.68C631.27 15.2667 630.83 14.94 630.324 14.7C629.83 14.4467 629.29 14.32 628.704 14.32C628.344 14.32 627.957 14.3933 627.544 14.54C627.144 14.6867 626.757 14.8933 626.384 15.16C626.024 15.4267 625.724 15.7333 625.484 16.08C625.244 16.4133 625.097 16.76 625.044 17.12V20.54C625.284 21.0467 625.59 21.5133 625.964 21.94C626.35 22.3533 626.797 22.6867 627.304 22.94C627.81 23.18 628.337 23.3 628.884 23.3ZM640.65 24.2C639.917 24.2 639.237 24.06 638.61 23.78C637.997 23.5 637.463 23.1133 637.01 22.62C636.557 22.1133 636.203 21.5333 635.95 20.88C635.697 20.2267 635.57 19.54 635.57 18.82C635.57 18.0867 635.697 17.4 635.95 16.76C636.203 16.1067 636.557 15.5333 637.01 15.04C637.477 14.5333 638.017 14.14 638.63 13.86C639.257 13.5667 639.93 13.42 640.65 13.42C641.37 13.42 642.037 13.5667 642.65 13.86C643.263 14.14 643.803 14.5333 644.27 15.04C644.737 15.5333 645.097 16.1067 645.35 16.76C645.603 17.4 645.73 18.0867 645.73 18.82C645.73 19.54 645.603 20.2267 645.35 20.88C645.097 21.5333 644.737 22.1133 644.27 22.62C643.817 23.1133 643.277 23.5 642.65 23.78C642.037 24.06 641.37 24.2 640.65 24.2ZM636.57 18.86C636.57 19.6733 636.75 20.42 637.11 21.1C637.483 21.7667 637.977 22.3 638.59 22.7C639.203 23.1 639.883 23.3 640.63 23.3C641.377 23.3 642.057 23.1 642.67 22.7C643.297 22.2867 643.79 21.74 644.15 21.06C644.523 20.3667 644.71 19.6133 644.71 18.8C644.71 17.9867 644.523 17.24 644.15 16.56C643.79 15.88 643.297 15.34 642.67 14.94C642.057 14.5267 641.383 14.32 640.65 14.32C639.903 14.32 639.223 14.5267 638.61 14.94C637.997 15.3533 637.503 15.9 637.13 16.58C636.757 17.26 636.57 18.02 636.57 18.86ZM653.046 14.5C652.112 14.5267 651.292 14.8067 650.586 15.34C649.892 15.86 649.406 16.58 649.126 17.5V24H648.126V13.6H649.086V16.16C649.446 15.4267 649.926 14.8333 650.526 14.38C651.126 13.9133 651.759 13.6467 652.426 13.58C652.559 13.5667 652.679 13.56 652.786 13.56C652.892 13.56 652.979 13.56 653.046 13.56V14.5ZM659.582 23.5C659.516 23.5267 659.382 23.5933 659.182 23.7C658.982 23.8067 658.729 23.9067 658.422 24C658.116 24.08 657.776 24.12 657.402 24.12C657.042 24.12 656.702 24.0533 656.382 23.92C656.076 23.7733 655.829 23.56 655.642 23.28C655.456 23 655.362 22.66 655.362 22.26V14.42H653.902V13.6H655.362V10.04H656.362V13.6H658.782V14.42H656.362V22.02C656.389 22.4067 656.529 22.7 656.782 22.9C657.036 23.0867 657.329 23.18 657.662 23.18C658.076 23.18 658.436 23.1133 658.742 22.98C659.049 22.8333 659.229 22.74 659.282 22.7L659.582 23.5Z" fill="#FFA8FF"/>
<rect x="1157.89" y="0.5" width="124" height="32" stroke="#FFA8FF"/>
<path d="M1193.51 12.16C1193.28 11.9067 1193.03 11.6867 1192.75 11.5C1192.47 11.3 1192.17 11.14 1191.85 11.02C1191.53 10.8867 1191.18 10.7867 1190.81 10.72C1190.44 10.6533 1190.04 10.62 1189.61 10.62C1188.22 10.62 1187.21 10.8867 1186.57 11.42C1185.94 11.94 1185.63 12.6467 1185.63 13.54C1185.63 14.14 1185.77 14.62 1186.05 14.98C1186.34 15.3267 1186.8 15.6067 1187.41 15.82C1188.02 16.0333 1188.82 16.24 1189.79 16.44C1190.82 16.6533 1191.7 16.9067 1192.45 17.2C1193.2 17.48 1193.77 17.8667 1194.17 18.36C1194.58 18.8533 1194.79 19.52 1194.79 20.36C1194.79 20.9867 1194.67 21.54 1194.43 22.02C1194.19 22.4867 1193.84 22.8733 1193.39 23.18C1192.94 23.4867 1192.4 23.72 1191.77 23.88C1191.16 24.04 1190.47 24.12 1189.71 24.12C1188.98 24.12 1188.28 24.04 1187.61 23.88C1186.94 23.72 1186.32 23.4867 1185.73 23.18C1185.14 22.8733 1184.6 22.48 1184.09 22L1184.63 21.18C1184.92 21.5 1185.25 21.7867 1185.61 22.04C1185.98 22.28 1186.38 22.4867 1186.81 22.66C1187.25 22.8333 1187.72 22.9733 1188.21 23.08C1188.7 23.1733 1189.22 23.22 1189.75 23.22C1190.99 23.22 1191.96 22.9933 1192.65 22.54C1193.36 22.0733 1193.71 21.3867 1193.71 20.48C1193.71 19.8533 1193.55 19.3467 1193.23 18.96C1192.91 18.5733 1192.42 18.26 1191.75 18.02C1191.08 17.7667 1190.25 17.5333 1189.25 17.32C1188.25 17.1067 1187.4 16.8667 1186.69 16.6C1186 16.3333 1185.47 15.9733 1185.11 15.52C1184.76 15.0667 1184.59 14.4533 1184.59 13.68C1184.59 12.8267 1184.8 12.1067 1185.21 11.52C1185.64 10.92 1186.23 10.4667 1186.99 10.16C1187.75 9.85333 1188.62 9.7 1189.61 9.7C1190.22 9.7 1190.79 9.76 1191.31 9.88C1191.84 10 1192.33 10.1867 1192.77 10.44C1193.22 10.68 1193.64 10.9867 1194.03 11.36L1193.51 12.16ZM1197.06 24V13.6H1198.06V24H1197.06ZM1197.06 11.24V9.4H1198.06V11.24H1197.06ZM1205.4 24.16C1204.69 24.16 1204.03 24.0133 1203.42 23.72C1202.82 23.4267 1202.3 23.0267 1201.86 22.52C1201.43 22 1201.09 21.4267 1200.84 20.8C1200.6 20.16 1200.48 19.5 1200.48 18.82C1200.48 18.1133 1200.59 17.4333 1200.82 16.78C1201.06 16.1267 1201.39 15.5533 1201.82 15.06C1202.26 14.5533 1202.77 14.1533 1203.36 13.86C1203.95 13.5667 1204.6 13.42 1205.32 13.42C1206.23 13.42 1207.01 13.66 1207.68 14.14C1208.36 14.6067 1208.93 15.18 1209.4 15.86V13.6H1210.32V24.2C1210.32 25.1333 1210.09 25.92 1209.64 26.56C1209.19 27.2 1208.59 27.6733 1207.84 27.98C1207.09 28.3 1206.29 28.46 1205.42 28.46C1204.21 28.46 1203.24 28.24 1202.52 27.8C1201.81 27.36 1201.24 26.78 1200.8 26.06L1201.48 25.6C1201.89 26.2933 1202.45 26.8067 1203.16 27.14C1203.87 27.4733 1204.62 27.64 1205.42 27.64C1206.13 27.64 1206.77 27.5067 1207.36 27.24C1207.96 26.9867 1208.43 26.6 1208.78 26.08C1209.14 25.5733 1209.32 24.9467 1209.32 24.2V21.92C1208.91 22.6 1208.34 23.1467 1207.62 23.56C1206.91 23.96 1206.17 24.16 1205.4 24.16ZM1205.64 23.3C1206.08 23.3 1206.51 23.22 1206.92 23.06C1207.33 22.9 1207.71 22.6867 1208.06 22.42C1208.41 22.14 1208.69 21.8333 1208.92 21.5C1209.15 21.1667 1209.28 20.8333 1209.32 20.5V17.08C1209.12 16.5467 1208.81 16.0733 1208.4 15.66C1208 15.2333 1207.55 14.9067 1207.04 14.68C1206.53 14.44 1206.01 14.32 1205.48 14.32C1204.85 14.32 1204.29 14.4533 1203.8 14.72C1203.31 14.9867 1202.89 15.34 1202.54 15.78C1202.21 16.2067 1201.95 16.6933 1201.76 17.24C1201.59 17.7733 1201.5 18.3067 1201.5 18.84C1201.5 19.44 1201.61 20.0067 1201.82 20.54C1202.03 21.0733 1202.33 21.5533 1202.7 21.98C1203.09 22.3933 1203.53 22.72 1204.02 22.96C1204.53 23.1867 1205.07 23.3 1205.64 23.3ZM1221.95 24H1220.95V18.2C1220.95 16.8667 1220.75 15.8933 1220.37 15.28C1219.99 14.6533 1219.39 14.34 1218.57 14.34C1217.98 14.34 1217.4 14.48 1216.83 14.76C1216.27 15.04 1215.77 15.4267 1215.35 15.92C1214.93 16.4 1214.63 16.9467 1214.45 17.56V24H1213.45V13.6H1214.39V16.08C1214.67 15.5467 1215.04 15.0867 1215.51 14.7C1215.97 14.3 1216.49 13.9867 1217.07 13.76C1217.64 13.5333 1218.23 13.42 1218.85 13.42C1219.42 13.42 1219.9 13.5267 1220.29 13.74C1220.69 13.94 1221.01 14.2333 1221.25 14.62C1221.5 15.0067 1221.68 15.4867 1221.79 16.06C1221.89 16.6333 1221.95 17.2867 1221.95 18.02V24ZM1236.13 24.1C1234.99 24.1 1234.05 23.9 1233.29 23.5C1232.53 23.1 1231.92 22.56 1231.47 21.88C1231.01 21.1867 1230.69 20.4133 1230.49 19.56C1230.29 18.7067 1230.19 17.8333 1230.19 16.94V9.8H1231.21V16.94C1231.21 17.7133 1231.29 18.4733 1231.45 19.22C1231.61 19.9667 1231.87 20.64 1232.23 21.24C1232.6 21.8267 1233.1 22.2933 1233.73 22.64C1234.37 22.9867 1235.16 23.16 1236.11 23.16C1237.07 23.16 1237.86 22.98 1238.49 22.62C1239.13 22.26 1239.63 21.7867 1239.99 21.2C1240.36 20.6 1240.62 19.9333 1240.77 19.2C1240.93 18.4533 1241.01 17.7 1241.01 16.94V9.8H1242.03V16.94C1242.03 17.8867 1241.92 18.7933 1241.71 19.66C1241.51 20.5133 1241.17 21.2733 1240.71 21.94C1240.24 22.6067 1239.63 23.1333 1238.89 23.52C1238.14 23.9067 1237.22 24.1 1236.13 24.1ZM1250.23 24.2C1249.33 24.2 1248.53 23.9667 1247.83 23.5C1247.13 23.02 1246.57 22.44 1246.15 21.76V28.26H1245.15V13.6H1246.07V15.68C1246.49 15.0133 1247.06 14.4733 1247.77 14.06C1248.47 13.6333 1249.22 13.42 1250.01 13.42C1250.74 13.42 1251.41 13.5733 1252.01 13.88C1252.61 14.1733 1253.13 14.58 1253.57 15.1C1254.02 15.6067 1254.37 16.18 1254.61 16.82C1254.86 17.46 1254.99 18.1267 1254.99 18.82C1254.99 19.78 1254.79 20.6733 1254.39 21.5C1253.99 22.3133 1253.43 22.9667 1252.71 23.46C1252 23.9533 1251.17 24.2 1250.23 24.2ZM1249.99 23.3C1250.6 23.3 1251.15 23.1733 1251.63 22.92C1252.12 22.6667 1252.54 22.3267 1252.89 21.9C1253.23 21.4733 1253.5 20.9933 1253.69 20.46C1253.87 19.9267 1253.97 19.38 1253.97 18.82C1253.97 18.22 1253.86 17.6533 1253.65 17.12C1253.43 16.5733 1253.13 16.0933 1252.75 15.68C1252.37 15.2667 1251.93 14.94 1251.43 14.7C1250.93 14.4467 1250.39 14.32 1249.81 14.32C1249.45 14.32 1249.06 14.3933 1248.65 14.54C1248.25 14.6867 1247.86 14.8933 1247.49 15.16C1247.13 15.4267 1246.83 15.7333 1246.59 16.08C1246.35 16.4133 1246.2 16.76 1246.15 17.12V20.54C1246.39 21.0467 1246.69 21.5133 1247.07 21.94C1247.45 22.3533 1247.9 22.6867 1248.41 22.94C1248.91 23.18 1249.44 23.3 1249.99 23.3Z" fill="#FFA8FF"/>
<g clip-path="url(#clip0_1_1567)">
<path d="M1332.99 18.79C1332.11 18.58 1331.32 18.15 1330.7 17.55C1330.32 17.19 1330.33 16.58 1330.7 16.21C1331.18 15.73 1331.6 15.13 1331.87 14.48C1332.27 14.37 1332.77 14 1332.77 13.52C1332.77 13.04 1332.52 12.62 1332.19 12.52C1332.09 10.47 1331.27 8.73999 1328.51 8.73999C1325.75 8.73999 1324.92 10.48 1324.83 12.52C1324.5 12.62 1324.25 13.03 1324.25 13.52C1324.25 14.01 1324.75 14.38 1325.15 14.48C1325.42 15.13 1325.84 15.72 1326.32 16.21C1326.69 16.58 1326.7 17.19 1326.32 17.55C1325.69 18.15 1324.9 18.58 1324.03 18.79C1322.87 19.07 1322.01 20.11 1322.01 21.36V23.52C1322.01 23.94 1322.35 24.28 1322.77 24.28H1334.27C1334.69 24.28 1335.03 23.94 1335.03 23.52V21.36C1335.03 20.11 1334.17 19.07 1333.01 18.79H1332.99Z" fill="#FFA8FF"/>
<path d="M1328.5 31.61C1320.17 31.61 1313.39 24.83 1313.39 16.5C1313.39 8.17001 1320.17 1.39001 1328.5 1.39001C1336.83 1.39001 1343.61 8.17001 1343.61 16.5C1343.61 24.83 1336.83 31.61 1328.5 31.61ZM1328.5 2.39001C1320.72 2.39001 1314.39 8.72001 1314.39 16.5C1314.39 24.28 1320.72 30.61 1328.5 30.61C1336.28 30.61 1342.61 24.28 1342.61 16.5C1342.61 8.72001 1336.28 2.39001 1328.5 2.39001Z" fill="#FFA8FF"/>
</g>
<defs>
<clipPath id="clip0_1_1567">
<rect width="30.22" height="30.22" fill="white" transform="translate(1313.39 1.39001)"/>
</clipPath>
</defs>
</svg>
