<svg width="465" height="146" viewBox="0 0 465 146" fill="none" xmlns="http://www.w3.org/2000/svg">
<path d="M7.695 11.07C7.695 8.316 7.317 6.291 6.561 4.995C5.805 3.645 4.293 2.97 2.025 2.97H1.215V0.539998H10.935C12.879 0.539998 14.364 0.863999 15.39 1.512C16.416 2.16 17.145 3.24 17.577 4.752C18.009 6.21 18.225 8.316 18.225 11.07V50.355H46.17V54H7.695V11.07ZM67.3648 54.81C63.4228 54.81 59.9668 53.946 56.9968 52.218C54.0808 50.436 51.8398 48.06 50.2738 45.09C48.7078 42.066 47.9248 38.691 47.9248 34.965C47.9248 31.239 48.7078 27.891 50.2738 24.921C51.8398 21.897 54.0808 19.521 56.9968 17.793C59.9668 16.011 63.4228 15.12 67.3648 15.12C71.3068 15.12 74.7358 16.011 77.6518 17.793C80.6218 19.521 82.8898 21.897 84.4558 24.921C86.0218 27.891 86.8048 31.239 86.8048 34.965C86.8048 38.691 86.0218 42.066 84.4558 45.09C82.8898 48.06 80.6218 50.436 77.6518 52.218C74.7358 53.946 71.3068 54.81 67.3648 54.81ZM67.3648 51.165C70.1188 51.165 72.2248 49.68 73.6828 46.71C75.1408 43.74 75.8698 39.825 75.8698 34.965C75.8698 30.105 75.1408 26.19 73.6828 23.22C72.2248 20.25 70.1188 18.765 67.3648 18.765C64.6108 18.765 62.5048 20.25 61.0468 23.22C59.5888 26.19 58.8598 30.105 58.8598 34.965C58.8598 39.825 59.5888 43.74 61.0468 46.71C62.5048 49.68 64.6108 51.165 67.3648 51.165ZM66.5548 10.665C65.1508 10.665 64.0438 10.233 63.2338 9.369C62.4238 8.505 62.0188 7.425 62.0188 6.129C62.0188 4.833 62.4238 3.753 63.2338 2.889C64.0438 2.025 65.1508 1.593 66.5548 1.593C67.9588 1.593 69.0658 2.025 69.8758 2.889C70.6858 3.753 71.0908 4.833 71.0908 6.129C71.0908 7.425 70.6858 8.505 69.8758 9.369C69.0658 10.233 67.9588 10.665 66.5548 10.665ZM81.1348 10.665C79.7308 10.665 78.6238 10.233 77.8138 9.369C77.0038 8.505 76.5988 7.425 76.5988 6.129C76.5988 4.833 77.0038 3.753 77.8138 2.889C78.6238 2.025 79.7308 1.593 81.1348 1.593C82.5388 1.593 83.6458 2.025 84.4558 2.889C85.2658 3.753 85.6708 4.833 85.6708 6.129C85.6708 7.425 85.2658 8.505 84.4558 9.369C83.6458 10.233 82.5388 10.665 81.1348 10.665ZM120.562 16.74C121.534 17.442 122.236 18.225 122.668 19.089C123.1 19.899 123.316 20.331 123.316 20.385L119.185 23.544C118.807 23.058 118.321 22.545 117.727 22.005C116.539 20.925 115.162 20.385 113.596 20.385C110.464 20.385 108.061 21.222 106.387 22.896L106.549 24.111C106.657 25.083 106.711 25.974 106.711 26.784V54H96.1812V26.46C96.1812 23.706 95.8032 21.681 95.0472 20.385C94.3452 19.035 92.8602 18.36 90.5922 18.36H89.7822V15.93H97.8012C99.6372 15.93 101.068 16.173 102.094 16.659C103.174 17.091 104.011 17.847 104.605 18.927C107.521 16.389 110.923 15.12 114.811 15.12C117.133 15.12 119.05 15.66 120.562 16.74ZM144.472 54.81C140.746 54.81 137.479 53.946 134.671 52.218C131.863 50.49 129.676 48.141 128.11 45.171C126.598 42.147 125.842 38.745 125.842 34.965C125.842 30.753 126.598 27.162 128.11 24.192C129.676 21.222 131.809 18.981 134.509 17.469C137.209 15.903 140.26 15.12 143.662 15.12C147.01 15.12 150.034 15.795 152.734 17.145C155.434 18.495 157.567 20.412 159.133 22.896C160.699 25.326 161.482 28.134 161.482 31.32C161.482 32.346 161.428 33.507 161.32 34.803L161.158 36.423H136.777C136.777 41.553 137.56 45.306 139.126 47.682C140.692 50.004 142.879 51.165 145.687 51.165C148.279 51.165 150.439 50.598 152.167 49.464C153.949 48.276 155.65 46.602 157.27 44.442L159.781 46.305C158.215 48.735 156.244 50.76 153.868 52.38C151.546 54 148.414 54.81 144.472 54.81ZM150.547 32.778C150.547 27.702 149.953 24.111 148.765 22.005C147.577 19.845 145.876 18.765 143.662 18.765C141.61 18.765 139.936 19.872 138.64 22.086C137.398 24.246 136.777 27.81 136.777 32.778H150.547ZM170.537 26.46C170.537 23.706 170.159 21.681 169.403 20.385C168.701 19.035 167.216 18.36 164.948 18.36H164.138V15.93H172.157C175.667 15.93 177.962 16.956 179.042 19.008H179.366C182.336 16.416 185.738 15.12 189.572 15.12C192.218 15.12 194.513 15.633 196.457 16.659C198.455 17.631 199.886 18.657 200.75 19.737C202.046 18.333 203.585 17.226 205.367 16.416C207.149 15.552 209.444 15.12 212.252 15.12C221.702 15.12 226.427 20.088 226.427 30.024V54H215.897V29.943C215.897 26.217 215.303 23.49 214.115 21.762C212.927 20.034 211.361 19.17 209.417 19.17C207.959 19.17 206.609 19.467 205.367 20.061C204.125 20.601 203.153 21.33 202.451 22.248C202.559 22.464 202.775 23.058 203.099 24.03C203.531 25.65 203.747 27.648 203.747 30.024V54H193.217V29.943C193.217 26.217 192.623 23.49 191.435 21.762C190.247 20.034 188.681 19.17 186.737 19.17C185.603 19.17 184.415 19.521 183.173 20.223C181.985 20.871 181.094 21.6 180.5 22.41L180.743 23.544C180.959 24.192 181.067 25.245 181.067 26.703V54H170.537V26.46ZM262.891 11.556C260.947 11.556 259.435 10.962 258.355 9.774C257.329 8.586 256.816 7.128 256.816 5.4C256.816 3.996 257.221 2.889 258.031 2.079C258.895 1.269 259.975 0.863999 261.271 0.863999C263.215 0.863999 264.7 1.458 265.726 2.646C266.806 3.834 267.346 5.292 267.346 7.02C267.346 8.424 266.914 9.531 266.05 10.341C265.24 11.151 264.187 11.556 262.891 11.556ZM257.626 26.46C257.626 23.706 257.248 21.681 256.492 20.385C255.736 19.035 254.224 18.36 251.956 18.36H251.146V15.93H260.866C262.81 15.93 264.295 16.254 265.321 16.902C266.347 17.55 267.076 18.63 267.508 20.142C267.94 21.6 268.156 23.706 268.156 26.46V54H257.626V26.46ZM279.301 26.46C279.301 23.706 278.923 21.681 278.167 20.385C277.465 19.035 275.98 18.36 273.712 18.36H272.902V15.93H280.921C282.811 15.93 284.269 16.2 285.295 16.74C286.321 17.226 287.131 18.09 287.725 19.332C290.911 16.524 294.583 15.12 298.741 15.12C304.195 15.12 308.38 16.983 311.296 20.709C314.266 24.381 315.751 29.133 315.751 34.965C315.751 40.797 314.239 45.576 311.215 49.302C308.245 52.974 303.952 54.81 298.336 54.81C296.122 54.81 294.043 54.405 292.099 53.595C291.235 53.271 290.479 52.866 289.831 52.38V69.39H279.301V26.46ZM296.716 51.165C302.116 51.165 304.816 45.765 304.816 34.965C304.816 29.997 304.195 26.055 302.953 23.139C301.711 20.223 299.767 18.765 297.121 18.765C294.097 18.765 291.478 19.872 289.264 22.086L289.507 23.22C289.723 23.868 289.831 24.786 289.831 25.974V48.735C290.425 49.221 291.073 49.626 291.775 49.95C293.287 50.76 294.934 51.165 296.716 51.165ZM337.328 54.81C331.01 54.81 326.663 53.703 324.287 51.489C323.423 50.679 322.883 49.545 322.667 48.087C322.451 46.575 322.343 44.496 322.343 41.85H325.178C325.664 44.658 326.771 46.926 328.499 48.654C330.227 50.328 332.63 51.165 335.708 51.165C341.108 51.165 343.808 49.329 343.808 45.657C343.808 44.253 343.214 43.092 342.026 42.174C340.892 41.256 339.056 40.23 336.518 39.096L332.306 37.314C328.85 35.802 326.258 34.155 324.53 32.373C322.802 30.591 321.938 28.431 321.938 25.893C321.938 22.491 323.342 19.845 326.15 17.955C329.012 16.065 332.738 15.12 337.328 15.12C343.646 15.12 347.993 16.227 350.369 18.441C351.233 19.251 351.773 20.385 351.989 21.843C352.205 23.301 352.313 25.38 352.313 28.08H349.478C348.992 25.272 347.885 23.031 346.157 21.357C344.429 19.629 342.026 18.765 338.948 18.765C336.626 18.765 334.898 19.278 333.764 20.304C332.63 21.276 332.063 22.599 332.063 24.273C332.063 25.623 332.522 26.757 333.44 27.675C334.412 28.539 335.87 29.403 337.814 30.267L342.674 32.292C346.67 33.966 349.532 35.667 351.26 37.395C353.042 39.069 353.933 41.283 353.933 44.037C353.933 47.493 352.394 50.166 349.316 52.056C346.292 53.892 342.296 54.81 337.328 54.81ZM377.324 54.81C372.194 54.81 368.414 53.622 365.984 51.246C363.554 48.87 362.339 45.09 362.339 39.906V26.46C362.339 23.706 361.961 21.681 361.205 20.385C360.449 19.035 358.937 18.36 356.669 18.36H355.859V15.93H365.579C367.523 15.93 369.008 16.254 370.034 16.902C371.06 17.55 371.789 18.63 372.221 20.142C372.653 21.6 372.869 23.706 372.869 26.46V39.987C372.869 44.037 373.436 46.926 374.57 48.654C375.704 50.328 377.432 51.165 379.754 51.165C381.752 51.165 383.561 50.301 385.181 48.573C385.775 47.979 386.396 47.088 387.044 45.9V15.93H397.574V54H390.689L387.854 50.355H387.449C386.693 51.165 385.802 51.921 384.776 52.623C382.724 54.081 380.24 54.81 377.324 54.81ZM408.949 26.46C408.949 23.706 408.571 21.681 407.815 20.385C407.113 19.035 405.628 18.36 403.36 18.36H402.55V15.93H410.569C414.079 15.93 416.374 16.956 417.454 19.008H417.778C420.748 16.416 424.15 15.12 427.984 15.12C430.63 15.12 432.925 15.633 434.869 16.659C436.867 17.631 438.298 18.657 439.162 19.737C440.458 18.333 441.997 17.226 443.779 16.416C445.561 15.552 447.856 15.12 450.664 15.12C460.114 15.12 464.839 20.088 464.839 30.024V54H454.309V29.943C454.309 26.217 453.715 23.49 452.527 21.762C451.339 20.034 449.773 19.17 447.829 19.17C446.371 19.17 445.021 19.467 443.779 20.061C442.537 20.601 441.565 21.33 440.863 22.248C440.971 22.464 441.187 23.058 441.511 24.03C441.943 25.65 442.159 27.648 442.159 30.024V54H431.629V29.943C431.629 26.217 431.035 23.49 429.847 21.762C428.659 20.034 427.093 19.17 425.149 19.17C424.015 19.17 422.827 19.521 421.585 20.223C420.397 20.871 419.506 21.6 418.912 22.41L419.155 23.544C419.371 24.192 419.479 25.245 419.479 26.703V54H408.949V26.46ZM6.48 117.46C6.48 114.706 6.102 112.681 5.346 111.385C4.644 110.035 3.159 109.36 0.891 109.36H0.081V106.93H8.1C11.61 106.93 13.905 107.956 14.985 110.008H15.309C18.279 107.416 21.681 106.12 25.515 106.12C28.161 106.12 30.456 106.633 32.4 107.659C34.398 108.631 35.829 109.657 36.693 110.737C37.989 109.333 39.528 108.226 41.31 107.416C43.092 106.552 45.387 106.12 48.195 106.12C57.645 106.12 62.37 111.088 62.37 121.024V145H51.84V120.943C51.84 117.217 51.246 114.49 50.058 112.762C48.87 111.034 47.304 110.17 45.36 110.17C43.902 110.17 42.552 110.467 41.31 111.061C40.068 111.601 39.096 112.33 38.394 113.248C38.502 113.464 38.718 114.058 39.042 115.03C39.474 116.65 39.69 118.648 39.69 121.024V145H29.16V120.943C29.16 117.217 28.566 114.49 27.378 112.762C26.19 111.034 24.624 110.17 22.68 110.17C21.546 110.17 20.358 110.521 19.116 111.223C17.928 111.871 17.037 112.6 16.443 113.41L16.686 114.544C16.902 115.192 17.01 116.245 17.01 117.703V145H6.48V117.46ZM88.5469 145.81C84.8209 145.81 81.5539 144.946 78.7459 143.218C75.9379 141.49 73.7509 139.141 72.1849 136.171C70.6729 133.147 69.9169 129.745 69.9169 125.965C69.9169 121.753 70.6729 118.162 72.1849 115.192C73.7509 112.222 75.8839 109.981 78.5839 108.469C81.2839 106.903 84.3349 106.12 87.7369 106.12C91.0849 106.12 94.1089 106.795 96.8089 108.145C99.5089 109.495 101.642 111.412 103.208 113.896C104.774 116.326 105.557 119.134 105.557 122.32C105.557 123.346 105.503 124.507 105.395 125.803L105.233 127.423H80.8519C80.8519 132.553 81.6349 136.306 83.2009 138.682C84.7669 141.004 86.9539 142.165 89.7619 142.165C92.3539 142.165 94.5139 141.598 96.2419 140.464C98.0239 139.276 99.7249 137.602 101.345 135.442L103.856 137.305C102.29 139.735 100.319 141.76 97.9429 143.38C95.6209 145 92.4889 145.81 88.5469 145.81ZM94.6219 123.778C94.6219 118.702 94.0279 115.111 92.8399 113.005C91.6519 110.845 89.9509 109.765 87.7369 109.765C85.6849 109.765 84.0109 110.872 82.7149 113.086C81.4729 115.246 80.8519 118.81 80.8519 123.778H94.6219ZM138.993 107.74C139.965 108.442 140.667 109.225 141.099 110.089C141.531 110.899 141.747 111.331 141.747 111.385L137.616 114.544C137.238 114.058 136.752 113.545 136.158 113.005C134.97 111.925 133.593 111.385 132.027 111.385C128.895 111.385 126.492 112.222 124.818 113.896L124.98 115.111C125.088 116.083 125.142 116.974 125.142 117.784V145H114.612V117.46C114.612 114.706 114.234 112.681 113.478 111.385C112.776 110.035 111.291 109.36 109.023 109.36H108.213V106.93H116.232C118.068 106.93 119.499 107.173 120.525 107.659C121.605 108.091 122.442 108.847 123.036 109.927C125.952 107.389 129.354 106.12 133.242 106.12C135.564 106.12 137.481 106.66 138.993 107.74ZM182.892 145.81C177.762 145.81 173.982 144.622 171.552 142.246C169.122 139.87 167.907 136.09 167.907 130.906V117.46C167.907 114.706 167.529 112.681 166.773 111.385C166.017 110.035 164.505 109.36 162.237 109.36H161.427V106.93H171.147C173.091 106.93 174.576 107.254 175.602 107.902C176.628 108.55 177.357 109.63 177.789 111.142C178.221 112.6 178.437 114.706 178.437 117.46V130.987C178.437 135.037 179.004 137.926 180.138 139.654C181.272 141.328 183 142.165 185.322 142.165C187.32 142.165 189.129 141.301 190.749 139.573C191.343 138.979 191.964 138.088 192.612 136.9V106.93H203.142V145H196.257L193.422 141.355H193.017C192.261 142.165 191.37 142.921 190.344 143.623C188.292 145.081 185.808 145.81 182.892 145.81ZM213.221 102.07C213.221 99.316 212.843 97.291 212.087 95.995C211.331 94.645 209.819 93.97 207.551 93.97H206.741V91.54H216.461C218.405 91.54 219.89 91.864 220.916 92.512C221.942 93.16 222.671 94.24 223.103 95.752C223.535 97.21 223.751 99.316 223.751 102.07V145H213.221V102.07ZM247.226 145.81C243.5 145.81 240.611 144.811 238.559 142.813C236.507 140.761 235.481 137.818 235.481 133.984V110.575H230.621V106.93H235.481V99.64L239.531 94.78H246.011V106.93H254.921V110.575H246.011V134.47C246.011 137.386 246.362 139.411 247.064 140.545C247.766 141.625 248.819 142.165 250.223 142.165C251.735 142.165 253.247 141.814 254.759 141.112C255.353 140.788 255.974 140.41 256.622 139.978L257.756 142.246C257.054 142.84 256.217 143.434 255.245 144.028C252.977 145.216 250.304 145.81 247.226 145.81ZM288.416 107.74C289.388 108.442 290.09 109.225 290.522 110.089C290.954 110.899 291.17 111.331 291.17 111.385L287.039 114.544C286.661 114.058 286.175 113.545 285.581 113.005C284.393 111.925 283.016 111.385 281.45 111.385C278.318 111.385 275.915 112.222 274.241 113.896L274.403 115.111C274.511 116.083 274.565 116.974 274.565 117.784V145H264.035V117.46C264.035 114.706 263.657 112.681 262.901 111.385C262.199 110.035 260.714 109.36 258.446 109.36H257.636V106.93H265.655C267.491 106.93 268.922 107.173 269.948 107.659C271.028 108.091 271.865 108.847 272.459 109.927C275.375 107.389 278.777 106.12 282.665 106.12C284.987 106.12 286.904 106.66 288.416 107.74ZM307.529 145.81C303.155 145.81 299.753 144.838 297.323 142.894C294.947 140.896 293.759 138.223 293.759 134.875C293.759 132.175 294.38 129.934 295.622 128.152C296.918 126.37 299.159 125.02 302.345 124.102C305.531 123.184 309.959 122.725 315.629 122.725H316.844C316.844 118.027 316.196 114.706 314.9 112.762C313.604 110.764 311.687 109.765 309.149 109.765C307.043 109.765 305.315 110.278 303.965 111.304C302.615 112.33 301.643 114.247 301.049 117.055H296.594C296.594 115.219 296.702 113.653 296.918 112.357C297.188 111.061 297.755 109.927 298.619 108.955C300.293 107.065 304.343 106.12 310.769 106.12C316.169 106.12 320.273 107.551 323.081 110.413C325.943 113.221 327.374 117.46 327.374 123.13V145H320.489L317.654 141.355H317.249C316.763 142.111 316.007 142.867 314.981 143.623C313.145 145.081 310.661 145.81 307.529 145.81ZM309.959 141.76C311.093 141.76 312.065 141.544 312.875 141.112C313.685 140.626 314.468 139.978 315.224 139.168C315.926 138.412 316.466 137.521 316.844 136.495V126.37H315.629C311.795 126.37 309.014 127.072 307.286 128.476C305.558 129.826 304.694 131.959 304.694 134.875C304.694 137.089 305.153 138.79 306.071 139.978C306.989 141.166 308.285 141.76 309.959 141.76ZM350.143 145.81C343.825 145.81 339.478 144.703 337.102 142.489C336.238 141.679 335.698 140.545 335.482 139.087C335.266 137.575 335.158 135.496 335.158 132.85H337.993C338.479 135.658 339.586 137.926 341.314 139.654C343.042 141.328 345.445 142.165 348.523 142.165C353.923 142.165 356.623 140.329 356.623 136.657C356.623 135.253 356.029 134.092 354.841 133.174C353.707 132.256 351.871 131.23 349.333 130.096L345.121 128.314C341.665 126.802 339.073 125.155 337.345 123.373C335.617 121.591 334.753 119.431 334.753 116.893C334.753 113.491 336.157 110.845 338.965 108.955C341.827 107.065 345.553 106.12 350.143 106.12C356.461 106.12 360.808 107.227 363.184 109.441C364.048 110.251 364.588 111.385 364.804 112.843C365.02 114.301 365.128 116.38 365.128 119.08H362.293C361.807 116.272 360.7 114.031 358.972 112.357C357.244 110.629 354.841 109.765 351.763 109.765C349.441 109.765 347.713 110.278 346.579 111.304C345.445 112.276 344.878 113.599 344.878 115.273C344.878 116.623 345.337 117.757 346.255 118.675C347.227 119.539 348.685 120.403 350.629 121.267L355.489 123.292C359.485 124.966 362.347 126.667 364.075 128.395C365.857 130.069 366.748 132.283 366.748 135.037C366.748 138.493 365.209 141.166 362.131 143.056C359.107 144.892 355.111 145.81 350.143 145.81ZM404.718 145.81C402.342 145.81 400.155 145.324 398.157 144.352C396.213 143.326 394.377 141.652 392.649 139.33L384.873 129.124V145H374.343V102.07C374.343 99.316 373.965 97.291 373.209 95.995C372.453 94.645 370.941 93.97 368.673 93.97H367.863V91.54H377.583C379.527 91.54 381.012 91.864 382.038 92.512C383.064 93.16 383.793 94.24 384.225 95.752C384.657 97.21 384.873 99.316 384.873 102.07V125.155L394.674 113.167C396.51 110.953 398.238 109.36 399.858 108.388C401.478 107.416 403.638 106.93 406.338 106.93H407.958V109.036C406.338 109.036 404.88 109.36 403.584 110.008C402.288 110.656 401.046 111.682 399.858 113.086L392.001 122.644L402.774 136.9C405.366 140.41 407.877 142.462 410.307 143.056V145C409.875 145.216 409.065 145.405 407.877 145.567C406.743 145.729 405.69 145.81 404.718 145.81Z" fill="white"/>
</svg>
