<svg width="14" height="17" viewBox="0 0 14 17" fill="none" xmlns="http://www.w3.org/2000/svg">
<path d="M10.99 10.79C10.11 10.58 9.32001 10.15 8.70001 9.54999C8.32001 9.18999 8.33001 8.57999 8.70001 8.20999C9.18001 7.72999 9.60001 7.12999 9.87001 6.47999C10.27 6.36999 10.77 5.99999 10.77 5.51999C10.77 5.03999 10.52 4.61999 10.19 4.51999C10.09 2.46999 9.27001 0.73999 6.51001 0.73999C3.75001 0.73999 2.92001 2.47999 2.83001 4.51999C2.50001 4.61999 2.25001 5.02999 2.25001 5.51999C2.25001 6.00999 2.75001 6.37999 3.15001 6.47999C3.42001 7.12999 3.84001 7.71999 4.32001 8.20999C4.69001 8.57999 4.70001 9.18999 4.32001 9.54999C3.69001 10.15 2.90001 10.58 2.03001 10.79C0.87001 11.07 0.0100098 12.11 0.0100098 13.36V15.52C0.0100098 15.94 0.35001 16.28 0.77001 16.28H12.27C12.69 16.28 13.03 15.94 13.03 15.52V13.36C13.03 12.11 12.17 11.07 11.01 10.79H10.99Z" fill="#FFA8FF"/>
</svg>
